<svg xmlns="http://www.w3.org/2000/svg" xmlns:xlink="http://www.w3.org/1999/xlink" width="400" zoomAndPan="magnify" viewBox="0 0 300 157.92" height="200" preserveAspectRatio="xMidYMid meet" version="1.0"><defs><g/><clipPath id="5239b1aa50"><path d="M 0.0742188 0 L 299.921875 0 L 299.921875 149.925781 L 0.0742188 149.925781 Z M 0.0742188 0 " clip-rule="nonzero"/></clipPath><clipPath id="c727dc5b5d"><path d="M 43 14.992188 L 135.320312 14.992188 L 135.320312 134.925781 L 43 134.925781 Z M 43 14.992188 " clip-rule="nonzero"/></clipPath><clipPath id="464b583ca0"><path d="M 30.011719 85.757812 L 148.328125 85.757812 L 148.328125 118.621094 L 30.011719 118.621094 Z M 30.011719 85.757812 " clip-rule="nonzero"/></clipPath><clipPath id="41e03330b4"><path d="M 30.011719 86.714844 L 148.328125 86.714844 L 148.328125 127.734375 L 30.011719 127.734375 Z M 30.011719 86.714844 " clip-rule="nonzero"/></clipPath><clipPath id="e08d082354"><path d="M 91 38 L 107.785156 38 L 107.785156 58 L 91 58 Z M 91 38 " clip-rule="nonzero"/></clipPath><clipPath id="bde0e85269"><rect x="0" width="108" y="0" height="59"/></clipPath></defs><g clip-path="url(#5239b1aa50)"><path fill="#ffffff" d="M 0.0742188 0 L 299.925781 0 L 299.925781 149.925781 L 0.0742188 149.925781 Z M 0.0742188 0 " fill-opacity="1" fill-rule="nonzero"/><path fill="#ffffff" d="M 0.0742188 0 L 299.925781 0 L 299.925781 149.925781 L 0.0742188 149.925781 Z M 0.0742188 0 " fill-opacity="1" fill-rule="nonzero"/></g><path fill="#f8f6e9" d="M 134.3125 111.164062 C 134.3125 111.164062 127.757812 108.390625 116.410156 108.5625 C 100.695312 108.804688 89.171875 119.878906 89.171875 119.878906 C 89.171875 119.878906 77.644531 108.804688 61.933594 108.5625 C 50.585938 108.390625 44.03125 111.164062 44.03125 111.164062 L 57.457031 76.296875 C 57.457031 76.296875 63.703125 76.921875 74.839844 77.859375 C 85.976562 78.796875 89.171875 85.769531 89.171875 85.769531 C 89.171875 85.769531 92.367188 78.796875 103.503906 77.859375 C 114.640625 76.921875 120.882812 76.296875 120.882812 76.296875 L 134.3125 111.164062 " fill-opacity="1" fill-rule="nonzero"/><path fill="#dddddd" d="M 61.933594 108.5625 C 50.585938 108.390625 44.03125 111.164062 44.03125 111.164062 L 55.152344 82.28125 L 57.457031 76.296875 L 50.820312 82.28125 L 37.21875 116.613281 C 37.21875 116.613281 66.816406 108.324219 89.171875 119.878906 L 87.785156 118.675781 C 84.28125 115.800781 74.429688 108.753906 61.933594 108.5625 " fill-opacity="1" fill-rule="nonzero"/><path fill="#dddddd" d="M 101.402344 112.019531 C 96.292969 114.28125 92.472656 117.101562 90.554688 118.675781 L 89.171875 119.878906 C 93.574219 117.601562 98.261719 116.097656 102.949219 115.144531 C 102.253906 113.417969 101.578125 112.296875 101.402344 112.019531 " fill-opacity="1" fill-rule="nonzero"/><path fill="#dddddd" d="M 127.519531 82.28125 L 120.882812 76.296875 L 123.1875 82.28125 L 134.3125 111.164062 C 134.3125 111.164062 127.757812 108.390625 116.410156 108.5625 C 115.105469 108.582031 113.835938 108.683594 112.59375 108.839844 C 113.226562 110.160156 113.921875 111.835938 114.53125 113.796875 C 129.066406 113.238281 141.125 116.613281 141.125 116.613281 L 127.519531 82.28125 " fill-opacity="1" fill-rule="nonzero"/><g clip-path="url(#c727dc5b5d)"><path fill="#0085f8" d="M 44.03125 61.273438 C 44.691406 61.273438 45.347656 61.273438 46.007812 61.273438 C 47.148438 61.273438 47.152344 59.5 46.007812 59.5 C 45.347656 59.5 44.691406 59.5 44.03125 59.5 C 42.890625 59.5 42.886719 61.273438 44.03125 61.273438 Z M 50.617188 61.273438 C 55.648438 61.273438 60.675781 61.273438 65.707031 61.269531 C 66.847656 61.269531 66.851562 59.496094 65.707031 59.496094 C 60.675781 59.496094 55.648438 59.5 50.617188 59.5 C 49.476562 59.5 49.472656 61.273438 50.617188 61.273438 Z M 55.632812 29.742188 C 60.101562 34.210938 64.574219 38.683594 69.042969 43.152344 C 69.683594 43.789062 70.320312 44.429688 70.960938 45.066406 C 71.769531 45.875 73.023438 44.621094 72.214844 43.8125 C 67.742188 39.34375 63.273438 34.871094 58.800781 30.402344 C 58.164062 29.765625 57.527344 29.125 56.886719 28.488281 C 56.078125 27.679688 54.824219 28.933594 55.632812 29.742188 Z M 134.3125 59.488281 C 130.234375 59.488281 126.15625 59.488281 122.078125 59.488281 C 120.9375 59.488281 120.933594 61.261719 122.078125 61.261719 C 126.15625 61.261719 130.234375 61.261719 134.3125 61.261719 C 135.457031 61.261719 135.457031 59.488281 134.3125 59.488281 Z M 118.28125 59.488281 C 116.402344 59.488281 114.519531 59.488281 112.640625 59.488281 C 111.496094 59.492188 111.496094 61.265625 112.640625 61.265625 C 114.519531 61.265625 116.402344 61.265625 118.28125 61.265625 C 119.425781 61.261719 119.425781 59.488281 118.28125 59.488281 Z M 121.449219 28.476562 C 119.945312 29.984375 118.4375 31.492188 116.929688 33 C 116.121094 33.808594 117.375 35.0625 118.183594 34.253906 C 119.691406 32.75 121.199219 31.242188 122.703125 29.734375 C 123.515625 28.925781 122.261719 27.667969 121.449219 28.476562 Z M 114.519531 35.410156 C 111.722656 38.210938 108.925781 41.007812 106.125 43.808594 C 105.320312 44.617188 106.570312 45.871094 107.382812 45.0625 C 110.179688 42.261719 112.976562 39.464844 115.773438 36.667969 C 116.582031 35.855469 115.328125 34.601562 114.519531 35.410156 Z M 88.285156 15.851562 C 88.285156 19.191406 88.285156 22.535156 88.285156 25.875 C 88.285156 27.015625 90.058594 27.019531 90.058594 25.875 C 90.058594 22.535156 90.058594 19.191406 90.058594 15.851562 C 90.058594 14.707031 88.285156 14.707031 88.285156 15.851562 Z M 88.285156 29.117188 C 88.285156 29.867188 88.285156 30.617188 88.285156 31.367188 C 88.285156 32.507812 90.058594 32.511719 90.058594 31.367188 C 90.058594 30.617188 90.058594 29.867188 90.058594 29.117188 C 90.058594 27.972656 88.285156 27.972656 88.285156 29.117188 Z M 88.285156 35.097656 C 88.285156 35.90625 88.285156 36.714844 88.285156 37.523438 C 88.285156 38.667969 90.058594 38.667969 90.058594 37.523438 C 90.058594 36.714844 90.058594 35.90625 90.058594 35.097656 C 90.058594 33.953125 88.285156 33.953125 88.285156 35.097656 Z M 101.402344 112.015625 C 101.925781 112.847656 107 121.324219 103.464844 131.027344 L 110.035156 128.546875 L 114.15625 134.925781 C 118.257812 123.667969 114.953125 113.777344 112.59375 108.835938 C 108.441406 109.359375 104.660156 110.574219 101.402344 112.015625 Z M 105.207031 67.84375 C 105.1875 68.570312 104.0625 68.570312 104.082031 67.84375 C 104.117188 66.691406 104.101562 65.542969 104.023438 64.390625 C 103.976562 63.667969 105.101562 63.671875 105.148438 64.390625 C 105.222656 65.542969 105.242188 66.691406 105.207031 67.84375 Z M 103.355469 59.980469 C 101.820312 53.753906 97.269531 47.359375 90.789062 45.542969 C 90.09375 45.347656 90.390625 44.265625 91.089844 44.460938 C 97.941406 46.378906 102.808594 53.074219 104.441406 59.683594 C 104.617188 60.382812 103.53125 60.683594 103.355469 59.980469 Z M 89.171875 39.960938 C 77.640625 39.960938 68.296875 49.304688 68.296875 60.832031 C 68.296875 64.746094 69.546875 68.824219 72.6875 72.839844 C 75.828125 76.859375 77.652344 79.339844 77.652344 82.335938 C 77.652344 85.328125 78.3125 86.863281 80.429688 86.863281 C 81.472656 86.863281 83.613281 86.863281 85.515625 86.863281 L 85.515625 70.265625 L 83.0625 70.265625 C 81.113281 70.265625 79.523438 68.679688 79.523438 66.726562 C 79.523438 64.777344 81.113281 63.191406 83.0625 63.191406 C 85.015625 63.191406 86.601562 64.777344 86.601562 66.726562 L 86.601562 69.179688 L 91.742188 69.179688 L 91.742188 66.726562 C 91.742188 64.777344 93.328125 63.191406 95.277344 63.191406 C 97.230469 63.191406 98.816406 64.777344 98.816406 66.726562 C 98.816406 68.679688 97.230469 70.265625 95.277344 70.265625 L 92.828125 70.265625 L 92.828125 86.863281 C 94.726562 86.863281 96.867188 86.863281 97.914062 86.863281 C 100.03125 86.863281 100.6875 85.328125 100.6875 82.335938 C 100.6875 79.339844 102.511719 76.859375 105.652344 72.839844 C 108.792969 68.824219 110.042969 64.746094 110.042969 60.832031 C 110.042969 49.304688 100.699219 39.960938 89.171875 39.960938 Z M 83.0625 64.277344 C 81.710938 64.277344 80.609375 65.375 80.609375 66.726562 C 80.609375 68.082031 81.710938 69.179688 83.0625 69.179688 L 85.515625 69.179688 L 85.515625 66.726562 C 85.515625 65.375 84.414062 64.277344 83.0625 64.277344 Z M 91.742188 70.265625 L 86.601562 70.265625 L 86.601562 86.863281 C 88.058594 86.863281 89.171875 86.863281 89.171875 86.863281 C 89.171875 86.863281 90.28125 86.863281 91.742188 86.863281 Z M 95.277344 69.179688 L 92.828125 69.179688 L 92.828125 66.726562 C 92.828125 65.375 93.925781 64.277344 95.277344 64.277344 C 96.628906 64.277344 97.730469 65.375 97.730469 66.726562 C 97.730469 68.082031 96.628906 69.179688 95.277344 69.179688 " fill-opacity="1" fill-rule="nonzero"/></g><g clip-path="url(#464b583ca0)"><path fill="#4d5e68" d="M 102.949219 115.148438 C 99.261719 115.894531 95.578125 116.984375 92.03125 118.523438 L 104.035156 118.523438 C 103.722656 117.242188 103.332031 116.101562 102.949219 115.148438 Z M 114.53125 113.800781 C 114.972656 115.234375 115.367188 116.816406 115.648438 118.523438 L 148.328125 118.523438 L 134.761719 85.78125 L 128.90625 85.78125 L 141.125 116.613281 C 141.125 116.613281 129.066406 113.238281 114.53125 113.800781 Z M 98.183594 96.273438 L 80.160156 98.242188 C 79.5625 98.308594 79.074219 97.871094 79.074219 97.273438 C 79.074219 96.675781 79.5625 96.136719 80.160156 96.070312 L 98.183594 94.105469 C 98.78125 94.039062 99.269531 94.472656 99.269531 95.070312 C 99.269531 95.667969 98.78125 96.210938 98.183594 96.273438 Z M 99.269531 90.292969 C 99.269531 89.695312 98.78125 89.261719 98.183594 89.324219 L 80.160156 91.292969 C 79.5625 91.359375 79.074219 91.898438 79.074219 92.496094 C 79.074219 93.09375 79.5625 93.527344 80.160156 93.464844 L 98.183594 91.496094 C 98.78125 91.433594 99.269531 90.890625 99.269531 90.292969 Z M 86.3125 118.523438 L 30.011719 118.523438 L 43.578125 85.78125 L 49.433594 85.78125 L 37.21875 116.613281 C 37.21875 116.613281 64.378906 109.011719 86.3125 118.523438 " fill-opacity="1" fill-rule="nonzero"/></g><g clip-path="url(#41e03330b4)"><path fill="#2c3b44" d="M 115.648438 118.523438 C 115.921875 120.175781 116.085938 121.941406 116.097656 123.804688 L 148.328125 123.804688 L 148.328125 118.523438 Z M 104.035156 118.523438 L 30.011719 118.523438 L 30.011719 123.804688 L 84.316406 123.804688 C 84.902344 125.9375 86.851562 127.503906 89.171875 127.503906 C 91.488281 127.503906 93.4375 125.9375 94.027344 123.804688 L 104.703125 123.804688 C 104.691406 121.875 104.417969 120.09375 104.035156 118.523438 Z M 82.285156 98.011719 C 83.730469 100.296875 86.28125 101.824219 89.171875 101.824219 C 92.6875 101.824219 95.703125 99.5625 96.835938 96.421875 Z M 97.3125 89.421875 L 97.3125 86.839844 L 81.027344 86.839844 L 81.027344 91.199219 Z M 97.296875 94.199219 L 81.351562 95.941406 C 81.140625 95.222656 81.027344 94.464844 81.027344 93.679688 L 81.027344 93.371094 L 97.3125 91.59375 L 97.3125 93.679688 C 97.3125 93.855469 97.304688 94.027344 97.296875 94.199219 " fill-opacity="1" fill-rule="nonzero"/></g><g transform="matrix(1, 0, 0, 1, 154, 51)"><g clip-path="url(#bde0e85269)"><g fill="#2c3b44" fill-opacity="1"><g transform="translate(0.997779, 20.932493)"><g><path d="M 1.53125 0 C 1.601562 -2.03125 1.660156 -4.128906 1.703125 -6.296875 C 1.753906 -8.472656 1.78125 -10.625 1.78125 -12.75 C 1.78125 -13.269531 1.773438 -13.898438 1.765625 -14.640625 C 1.753906 -15.378906 1.742188 -16.109375 1.734375 -16.828125 C 1.734375 -17.554688 1.734375 -18.148438 1.734375 -18.609375 L 8.921875 -18.609375 L 12.578125 -4.515625 L 12.953125 -4.515625 L 16.578125 -18.609375 L 23.78125 -18.609375 C 23.78125 -17.628906 23.773438 -16.648438 23.765625 -15.671875 C 23.753906 -14.703125 23.75 -13.726562 23.75 -12.75 C 23.75 -10.625 23.769531 -8.472656 23.8125 -6.296875 C 23.851562 -4.128906 23.90625 -2.03125 23.96875 0 L 19.640625 0 C 19.640625 -1.21875 19.640625 -2.519531 19.640625 -3.90625 C 19.640625 -5.300781 19.617188 -6.710938 19.578125 -8.140625 C 19.578125 -9.148438 19.570312 -10.25 19.5625 -11.4375 C 19.5625 -12.625 19.550781 -13.707031 19.53125 -14.6875 L 19.21875 -14.6875 L 15.203125 0 L 10.34375 0 L 6.296875 -14.6875 L 5.96875 -14.6875 L 5.90625 -8.125 C 5.90625 -6.6875 5.898438 -5.273438 5.890625 -3.890625 C 5.878906 -2.515625 5.875 -1.21875 5.875 0 Z M 1.53125 0 "/></g></g></g><g fill="#2c3b44" fill-opacity="1"><g transform="translate(26.510489, 20.932493)"><g><path d="M 1.53125 0 C 1.582031 -1.539062 1.613281 -3.085938 1.625 -4.640625 C 1.632812 -6.191406 1.640625 -7.742188 1.640625 -9.296875 C 1.640625 -10.859375 1.632812 -12.410156 1.625 -13.953125 C 1.613281 -15.492188 1.582031 -17.046875 1.53125 -18.609375 L 6.34375 -18.609375 C 6.289062 -17.066406 6.257812 -15.519531 6.25 -13.96875 C 6.25 -12.414062 6.25 -10.863281 6.25 -9.3125 C 6.25 -7.75 6.25 -6.191406 6.25 -4.640625 C 6.257812 -3.085938 6.289062 -1.539062 6.34375 0 Z M 1.53125 0 "/></g></g></g><g fill="#2c3b44" fill-opacity="1"><g transform="translate(34.388693, 20.932493)"><g><path d="M 9.53125 0.296875 C 6.851562 0.296875 4.789062 -0.148438 3.34375 -1.046875 C 1.90625 -1.941406 1.066406 -3.492188 0.828125 -5.703125 L 6 -6.125 C 6.082031 -5.570312 6.238281 -5.054688 6.46875 -4.578125 C 6.707031 -4.097656 7.070312 -3.707031 7.5625 -3.40625 C 8.0625 -3.101562 8.742188 -2.953125 9.609375 -2.953125 C 10.046875 -2.953125 10.5 -2.988281 10.96875 -3.0625 C 11.445312 -3.144531 11.816406 -3.296875 12.078125 -3.515625 C 12.484375 -4.117188 12.6875 -4.789062 12.6875 -5.53125 C 12.6875 -6.019531 12.585938 -6.414062 12.390625 -6.71875 C 12.191406 -7.03125 11.835938 -7.273438 11.328125 -7.453125 C 10.828125 -7.640625 10.097656 -7.78125 9.140625 -7.875 C 7.191406 -7.957031 5.644531 -8.234375 4.5 -8.703125 C 3.351562 -9.179688 2.53125 -9.816406 2.03125 -10.609375 C 1.539062 -11.410156 1.296875 -12.328125 1.296875 -13.359375 C 1.296875 -14.617188 1.640625 -15.65625 2.328125 -16.46875 C 3.015625 -17.289062 3.953125 -17.898438 5.140625 -18.296875 C 6.328125 -18.703125 7.675781 -18.90625 9.1875 -18.90625 C 11.8125 -18.90625 13.765625 -18.359375 15.046875 -17.265625 C 16.328125 -16.179688 17.109375 -14.546875 17.390625 -12.359375 L 12.640625 -12.03125 C 12.523438 -12.738281 12.363281 -13.351562 12.15625 -13.875 C 11.957031 -14.394531 11.617188 -14.796875 11.140625 -15.078125 C 10.660156 -15.367188 9.945312 -15.515625 9 -15.515625 C 8.65625 -15.515625 8.273438 -15.484375 7.859375 -15.421875 C 7.453125 -15.367188 7.117188 -15.257812 6.859375 -15.09375 C 6.628906 -14.789062 6.441406 -14.457031 6.296875 -14.09375 C 6.148438 -13.738281 6.078125 -13.34375 6.078125 -12.90625 C 6.078125 -12.101562 6.328125 -11.535156 6.828125 -11.203125 C 7.328125 -10.867188 8.222656 -10.613281 9.515625 -10.4375 C 11.140625 -10.351562 12.46875 -10.175781 13.5 -9.90625 C 14.53125 -9.644531 15.328125 -9.296875 15.890625 -8.859375 C 16.453125 -8.429688 16.84375 -7.921875 17.0625 -7.328125 C 17.28125 -6.734375 17.390625 -6.0625 17.390625 -5.3125 C 17.390625 -4.113281 17.050781 -3.09375 16.375 -2.25 C 15.695312 -1.414062 14.769531 -0.78125 13.59375 -0.34375 C 12.414062 0.0820312 11.0625 0.296875 9.53125 0.296875 Z M 9.53125 0.296875 "/></g></g></g><g fill="#2c3b44" fill-opacity="1"><g transform="translate(0.997779, 54.515479)"><g><path d="M 1.53125 0 C 1.5625 -1.539062 1.585938 -3.113281 1.609375 -4.71875 C 1.628906 -6.320312 1.640625 -7.847656 1.640625 -9.296875 C 1.640625 -10.753906 1.628906 -12.28125 1.609375 -13.875 C 1.585938 -15.46875 1.5625 -17.046875 1.53125 -18.609375 L 6.421875 -18.609375 C 6.367188 -15.515625 6.34375 -12.597656 6.34375 -9.859375 C 6.34375 -8.816406 6.34375 -7.742188 6.34375 -6.640625 C 6.351562 -5.546875 6.367188 -4.566406 6.390625 -3.703125 C 7.640625 -3.703125 8.945312 -3.707031 10.3125 -3.71875 C 11.675781 -3.726562 12.953125 -3.738281 14.140625 -3.75 L 13.8125 0 Z M 1.53125 0 "/></g></g></g><g fill="#2c3b44" fill-opacity="1"><g transform="translate(15.095626, 54.515479)"><g><path d="M 4.078125 -16.515625 C 2.984375 -16.515625 2.222656 -16.664062 1.796875 -16.96875 C 1.378906 -17.269531 1.171875 -17.726562 1.171875 -18.34375 C 1.171875 -18.976562 1.378906 -19.445312 1.796875 -19.75 C 2.222656 -20.0625 2.984375 -20.21875 4.078125 -20.21875 C 5.160156 -20.21875 5.910156 -20.0625 6.328125 -19.75 C 6.753906 -19.445312 6.96875 -18.976562 6.96875 -18.34375 C 6.96875 -17.726562 6.753906 -17.269531 6.328125 -16.96875 C 5.910156 -16.664062 5.160156 -16.515625 4.078125 -16.515625 Z M 1.65625 0 C 1.6875 -1.25 1.707031 -2.441406 1.71875 -3.578125 C 1.738281 -4.722656 1.75 -5.851562 1.75 -6.96875 C 1.75 -8.40625 1.738281 -9.84375 1.71875 -11.28125 C 1.707031 -12.71875 1.6875 -14.054688 1.65625 -15.296875 C 1.945312 -15.273438 2.296875 -15.242188 2.703125 -15.203125 C 3.109375 -15.160156 3.566406 -15.140625 4.078125 -15.140625 C 4.609375 -15.140625 5.066406 -15.160156 5.453125 -15.203125 C 5.847656 -15.242188 6.191406 -15.273438 6.484375 -15.296875 C 6.484375 -14.691406 6.476562 -13.925781 6.46875 -13 C 6.46875 -12.070312 6.460938 -11.078125 6.453125 -10.015625 C 6.441406 -8.960938 6.4375 -7.945312 6.4375 -6.96875 C 6.4375 -6.175781 6.441406 -5.359375 6.453125 -4.515625 C 6.460938 -3.671875 6.46875 -2.859375 6.46875 -2.078125 C 6.476562 -1.296875 6.484375 -0.601562 6.484375 0 Z M 1.65625 0 "/></g></g></g><g fill="#2c3b44" fill-opacity="1"><g transform="translate(23.266523, 54.515479)"><g><path d="M 11.8125 0.296875 C 10.832031 0.296875 9.972656 0.125 9.234375 -0.21875 C 8.503906 -0.570312 7.90625 -1.035156 7.4375 -1.609375 C 6.96875 -2.179688 6.617188 -2.800781 6.390625 -3.46875 L 6.09375 -3.46875 L 5.75 0 L 1.65625 0 C 1.6875 -1.28125 1.707031 -2.4375 1.71875 -3.46875 C 1.726562 -4.507812 1.734375 -5.503906 1.734375 -6.453125 C 1.742188 -7.398438 1.75 -8.394531 1.75 -9.4375 C 1.75 -11 1.738281 -12.515625 1.71875 -13.984375 C 1.707031 -15.460938 1.6875 -16.90625 1.65625 -18.3125 L 6.484375 -18.75 L 6.46875 -15.609375 C 6.46875 -15.171875 6.445312 -14.789062 6.40625 -14.46875 C 6.363281 -14.15625 6.316406 -13.835938 6.265625 -13.515625 C 6.210938 -13.203125 6.15625 -12.835938 6.09375 -12.421875 L 6.4375 -12.421875 C 6.78125 -13.304688 7.253906 -14.015625 7.859375 -14.546875 C 8.472656 -15.085938 9.140625 -15.476562 9.859375 -15.71875 C 10.585938 -15.96875 11.289062 -16.09375 11.96875 -16.09375 C 13.320312 -16.09375 14.394531 -15.753906 15.1875 -15.078125 C 15.988281 -14.410156 16.5625 -13.460938 16.90625 -12.234375 C 17.257812 -11.003906 17.4375 -9.5625 17.4375 -7.90625 C 17.4375 -5.332031 16.96875 -3.320312 16.03125 -1.875 C 15.101562 -0.425781 13.695312 0.296875 11.8125 0.296875 Z M 9.75 -3.09375 C 10.582031 -3.09375 11.273438 -3.320312 11.828125 -3.78125 C 12.109375 -4.3125 12.328125 -4.921875 12.484375 -5.609375 C 12.648438 -6.304688 12.734375 -7.054688 12.734375 -7.859375 C 12.734375 -8.335938 12.6875 -8.84375 12.59375 -9.375 C 12.507812 -9.90625 12.363281 -10.394531 12.15625 -10.84375 C 11.957031 -11.300781 11.6875 -11.664062 11.34375 -11.9375 C 11 -12.21875 10.582031 -12.359375 10.09375 -12.359375 C 9.300781 -12.359375 8.59375 -12.125 7.96875 -11.65625 C 7.34375 -11.195312 6.84375 -10.597656 6.46875 -9.859375 C 6.445312 -9.460938 6.425781 -9.101562 6.40625 -8.78125 C 6.394531 -8.457031 6.390625 -8.007812 6.390625 -7.4375 C 6.390625 -6.414062 6.578125 -5.585938 6.953125 -4.953125 C 7.328125 -4.316406 7.773438 -3.847656 8.296875 -3.546875 C 8.816406 -3.242188 9.300781 -3.09375 9.75 -3.09375 Z M 9.75 -3.09375 "/></g></g></g><g fill="#2c3b44" fill-opacity="1"><g transform="translate(41.730314, 54.515479)"><g><path d="M 11.703125 -16.09375 C 12.734375 -16.09375 13.546875 -15.832031 14.140625 -15.3125 C 14.734375 -14.789062 15.171875 -13.992188 15.453125 -12.921875 C 15.734375 -11.847656 15.925781 -10.476562 16.03125 -8.8125 L 11.34375 -8.296875 C 11.34375 -9.609375 11.195312 -10.59375 10.90625 -11.25 C 10.625 -11.914062 10.128906 -12.25 9.421875 -12.25 C 8.898438 -12.25 8.378906 -12.046875 7.859375 -11.640625 C 7.347656 -11.234375 6.890625 -10.710938 6.484375 -10.078125 L 6.515625 -10.03125 C 6.492188 -9.519531 6.472656 -9.128906 6.453125 -8.859375 C 6.441406 -8.597656 6.429688 -8.378906 6.421875 -8.203125 C 6.421875 -8.035156 6.421875 -7.835938 6.421875 -7.609375 C 6.421875 -6.222656 6.421875 -4.910156 6.421875 -3.671875 C 6.429688 -2.441406 6.460938 -1.21875 6.515625 0 L 1.65625 0 C 1.707031 -1.238281 1.734375 -2.515625 1.734375 -3.828125 C 1.742188 -5.148438 1.75 -6.5 1.75 -7.875 C 1.75 -9.226562 1.742188 -10.570312 1.734375 -11.90625 C 1.734375 -13.25 1.71875 -14.539062 1.6875 -15.78125 L 6.515625 -15.78125 L 6.03125 -12.421875 L 6.3125 -12.390625 C 6.832031 -13.628906 7.585938 -14.554688 8.578125 -15.171875 C 9.578125 -15.785156 10.617188 -16.09375 11.703125 -16.09375 Z M 11.703125 -16.09375 "/></g></g></g><g fill="#2c3b44" fill-opacity="1"><g transform="translate(57.462254, 54.515479)"><g><path d="M 5.828125 0.34375 C 4.890625 0.34375 4.0625 0.175781 3.34375 -0.15625 C 2.625 -0.488281 2.0625 -0.957031 1.65625 -1.5625 C 1.25 -2.175781 1.046875 -2.890625 1.046875 -3.703125 C 1.046875 -5.203125 1.671875 -6.351562 2.921875 -7.15625 C 4.179688 -7.957031 5.9375 -8.359375 8.1875 -8.359375 C 8.675781 -8.359375 9.191406 -8.347656 9.734375 -8.328125 C 10.285156 -8.304688 10.882812 -8.28125 11.53125 -8.25 L 11.53125 -8.609375 C 11.53125 -9.335938 11.445312 -10.003906 11.28125 -10.609375 C 11.125 -11.222656 10.8125 -11.710938 10.34375 -12.078125 C 9.882812 -12.453125 9.1875 -12.640625 8.25 -12.640625 C 7.644531 -12.535156 7.140625 -12.3125 6.734375 -11.96875 C 6.328125 -11.289062 6.050781 -10.347656 5.90625 -9.140625 L 1.359375 -9.8125 C 1.609375 -11.914062 2.398438 -13.492188 3.734375 -14.546875 C 5.066406 -15.609375 6.835938 -16.140625 9.046875 -16.140625 C 10.785156 -16.140625 12.179688 -15.851562 13.234375 -15.28125 C 14.285156 -14.707031 15.039062 -13.867188 15.5 -12.765625 C 15.96875 -11.671875 16.203125 -10.332031 16.203125 -8.75 C 16.203125 -7.757812 16.203125 -6.914062 16.203125 -6.21875 C 16.210938 -5.519531 16.21875 -4.796875 16.21875 -4.046875 C 16.238281 -3.203125 16.25 -2.453125 16.25 -1.796875 C 16.25 -1.140625 16.25 -0.539062 16.25 0 L 11.484375 0 L 11.859375 -3.734375 L 11.53125 -3.734375 C 11.269531 -3.035156 10.890625 -2.375 10.390625 -1.75 C 9.898438 -1.125 9.28125 -0.617188 8.53125 -0.234375 C 7.789062 0.148438 6.890625 0.34375 5.828125 0.34375 Z M 7.515625 -3.171875 C 8.046875 -3.171875 8.539062 -3.273438 9 -3.484375 C 9.457031 -3.703125 9.859375 -3.957031 10.203125 -4.25 C 10.554688 -4.539062 10.847656 -4.828125 11.078125 -5.109375 C 11.316406 -5.390625 11.476562 -5.601562 11.5625 -5.75 L 11.5625 -6.515625 C 11.332031 -6.523438 11.035156 -6.535156 10.671875 -6.546875 C 10.316406 -6.554688 10.03125 -6.5625 9.8125 -6.5625 C 9.1875 -6.5625 8.546875 -6.519531 7.890625 -6.4375 C 7.242188 -6.351562 6.707031 -6.179688 6.28125 -5.921875 C 5.851562 -5.660156 5.640625 -5.25 5.640625 -4.6875 C 5.640625 -4.132812 5.8125 -3.742188 6.15625 -3.515625 C 6.507812 -3.285156 6.960938 -3.171875 7.515625 -3.171875 Z M 7.515625 -3.171875 "/></g></g></g><g fill="#2c3b44" fill-opacity="1"><g transform="translate(75.121145, 54.515479)"><g><path d="M 11.703125 -16.09375 C 12.734375 -16.09375 13.546875 -15.832031 14.140625 -15.3125 C 14.734375 -14.789062 15.171875 -13.992188 15.453125 -12.921875 C 15.734375 -11.847656 15.925781 -10.476562 16.03125 -8.8125 L 11.34375 -8.296875 C 11.34375 -9.609375 11.195312 -10.59375 10.90625 -11.25 C 10.625 -11.914062 10.128906 -12.25 9.421875 -12.25 C 8.898438 -12.25 8.378906 -12.046875 7.859375 -11.640625 C 7.347656 -11.234375 6.890625 -10.710938 6.484375 -10.078125 L 6.515625 -10.03125 C 6.492188 -9.519531 6.472656 -9.128906 6.453125 -8.859375 C 6.441406 -8.597656 6.429688 -8.378906 6.421875 -8.203125 C 6.421875 -8.035156 6.421875 -7.835938 6.421875 -7.609375 C 6.421875 -6.222656 6.421875 -4.910156 6.421875 -3.671875 C 6.429688 -2.441406 6.460938 -1.21875 6.515625 0 L 1.65625 0 C 1.707031 -1.238281 1.734375 -2.515625 1.734375 -3.828125 C 1.742188 -5.148438 1.75 -6.5 1.75 -7.875 C 1.75 -9.226562 1.742188 -10.570312 1.734375 -11.90625 C 1.734375 -13.25 1.71875 -14.539062 1.6875 -15.78125 L 6.515625 -15.78125 L 6.03125 -12.421875 L 6.3125 -12.390625 C 6.832031 -13.628906 7.585938 -14.554688 8.578125 -15.171875 C 9.578125 -15.785156 10.617188 -16.09375 11.703125 -16.09375 Z M 11.703125 -16.09375 "/></g></g></g><g clip-path="url(#e08d082354)"><g fill="#2c3b44" fill-opacity="1"><g transform="translate(91.292207, 54.515479)"><g><path d="M 6.171875 3.265625 C 5.773438 3.265625 5.300781 3.25 4.75 3.21875 C 4.195312 3.195312 3.660156 3.160156 3.140625 3.109375 C 2.617188 3.066406 2.195312 3.015625 1.875 2.953125 L 2.296875 -0.65625 L 7.6875 -0.65625 C 7.8125 -1.125 7.9375 -1.585938 8.0625 -2.046875 C 8.1875 -2.515625 8.269531 -2.832031 8.3125 -3 L 7.96875 -3 C 7.726562 -2.757812 7.359375 -2.582031 6.859375 -2.46875 C 6.367188 -2.363281 5.832031 -2.3125 5.25 -2.3125 L 3.78125 -2.3125 C 3.570312 -3.125 3.300781 -4.09375 2.96875 -5.21875 C 2.644531 -6.351562 2.304688 -7.550781 1.953125 -8.8125 C 1.597656 -10.070312 1.253906 -11.304688 0.921875 -12.515625 C 0.585938 -13.734375 0.296875 -14.820312 0.046875 -15.78125 L 4.96875 -15.78125 C 5.164062 -14.945312 5.390625 -14.035156 5.640625 -13.046875 C 5.898438 -12.054688 6.164062 -11.039062 6.4375 -10 C 6.71875 -8.957031 6.984375 -7.953125 7.234375 -6.984375 C 7.484375 -6.015625 7.707031 -5.148438 7.90625 -4.390625 L 8.25 -4.390625 C 8.425781 -5.148438 8.625 -6.007812 8.84375 -6.96875 C 9.070312 -7.9375 9.3125 -8.9375 9.5625 -9.96875 C 9.820312 -11 10.066406 -12.015625 10.296875 -13.015625 C 10.535156 -14.015625 10.753906 -14.9375 10.953125 -15.78125 L 15.921875 -15.78125 C 15.597656 -14.332031 15.257812 -12.914062 14.90625 -11.53125 C 14.5625 -10.15625 14.191406 -8.710938 13.796875 -7.203125 C 13.398438 -5.703125 12.972656 -4.054688 12.515625 -2.265625 C 12.191406 -0.816406 11.789062 0.304688 11.3125 1.109375 C 10.84375 1.910156 10.203125 2.46875 9.390625 2.78125 C 8.585938 3.101562 7.515625 3.265625 6.171875 3.265625 Z M 6.171875 3.265625 "/></g></g></g></g></g></g></svg>